<?xml version="1.0" encoding="utf-8"?>
<!-- Generator: Adobe Illustrator 16.0.0, SVG Export Plug-In . SVG Version: 6.00 Build 0)  -->
<!DOCTYPE svg PUBLIC "-//W3C//DTD SVG 1.1//EN" "http://www.w3.org/Graphics/SVG/1.1/DTD/svg11.dtd">
<svg version="1.1" id="Layer_1" xmlns="http://www.w3.org/2000/svg" xmlns:xlink="http://www.w3.org/1999/xlink" x="0px" y="0px"
	 width="360px" height="360px" viewBox="0 0 360 360" enable-background="new 0 0 360 360" xml:space="preserve">
<g>
	<g>
		<rect x="131.877" y="78.612" fill="#F0534F" width="11.755" height="11.02"/>
	</g>
</g>
<g>
	<g>
		<rect x="222.245" y="78.612" fill="#F0534F" width="11.021" height="11.02"/>
	</g>
</g>
<g>
	<g>
		<rect x="104.694" y="102.123" fill="#F0534F" width="11.02" height="11.02"/>
	</g>
</g>
<g>
	<g>
		<rect x="120.857" y="118.286" fill="#F0534F" width="11.02" height="11.02"/>
	</g>
</g>
<g>
	<g>
		<rect x="131.877" y="157.959" fill="#F0534F" width="11.755" height="11.02"/>
	</g>
</g>
<g>
	<g>
		<rect x="115.714" y="174.857" fill="#F0534F" width="11.021" height="11.02"/>
	</g>
</g>
<g>
	<g>
		<rect x="131.877" y="191.755" fill="#F0534F" width="11.755" height="11.021"/>
	</g>
</g>
<g>
	<g>
		<polygon fill="#F0534F" points="200.204,11.755 200.204,0 189.184,0 189.184,11.755 177.429,11.755 177.429,22.775 
			189.184,22.775 189.184,33.796 200.204,33.796 200.204,22.775 211.225,22.775 211.225,11.755 		"/>
	</g>
</g>
<g>
	<g>
		<polygon fill="#F0534F" points="323.633,141.061 323.633,129.306 312.612,129.306 312.612,141.061 300.857,141.061 
			300.857,152.082 312.612,152.082 312.612,163.102 323.633,163.102 323.633,152.082 334.653,152.082 334.653,141.061 		"/>
	</g>
</g>
<g>
	<g>
		<polygon fill="#F0534F" points="182.571,208.652 182.571,197.633 171.551,197.633 171.551,208.652 160.53,208.652 160.53,219.674 
			171.551,219.674 171.551,230.693 182.571,230.693 182.571,219.674 194.326,219.674 194.326,208.652 		"/>
	</g>
</g>
<g>
	<g>
		<polygon fill="#F0534F" points="59.877,62.449 59.877,51.429 48.857,51.429 48.857,62.449 36.367,62.449 36.367,73.47 
			48.857,73.47 48.857,84.49 59.877,84.49 59.877,73.47 70.898,73.47 70.898,62.449 		"/>
	</g>
</g>
<g>
	<g>
		<rect x="143.633" y="6.612" fill="#F0534F" width="11.755" height="11.02"/>
	</g>
</g>
<g>
	<g>
		<rect x="211.225" y="62.449" fill="#F0534F" width="11.02" height="11.02"/>
	</g>
</g>
<g>
	<g>
		<rect x="177.429" y="91.102" fill="#F0534F" width="11.021" height="11.021"/>
	</g>
</g>
<g>
	<g>
		<rect x="65.021" y="22.775" fill="#F0534F" width="11.02" height="11.021"/>
	</g>
</g>
<g>
	<g>
		<rect x="115.714" y="22.775" fill="#F0534F" width="11.021" height="11.021"/>
	</g>
</g>
<g>
	<g>
		<rect x="25.347" y="107.265" fill="#F0534F" width="11.02" height="11.02"/>
	</g>
</g>
<g>
	<g>
		<rect x="65.021" y="124.164" fill="#F0534F" width="11.02" height="11.02"/>
	</g>
</g>
<g>
	<g>
		<rect x="245.02" y="102.123" fill="#F0534F" width="11.021" height="11.02"/>
	</g>
</g>
<g>
	<g>
		<rect x="228.123" y="129.306" fill="#F0534F" width="11.02" height="11.02"/>
	</g>
</g>
<g>
	<g>
		<rect x="239.143" y="163.102" fill="#F0534F" width="11.755" height="11.021"/>
	</g>
</g>
<g>
	<g>
		<rect x="211.225" y="107.265" fill="#F0534F" width="11.02" height="11.02"/>
	</g>
</g>
<g>
	<g>
		<rect x="295.714" y="107.265" fill="#F0534F" width="11.021" height="11.02"/>
	</g>
</g>
<g>
	<g>
		<rect x="323.633" y="62.449" fill="#F0534F" width="11.021" height="11.02"/>
	</g>
</g>
<g>
	<g>
		<rect x="278.082" y="17.633" fill="#F0534F" width="11.754" height="11.021"/>
	</g>
</g>
<g>
	<g>
		<rect x="245.02" y="0.735" fill="#F0534F" width="11.021" height="11.02"/>
	</g>
</g>
<g>
	<g>
		<rect x="228.123" y="28.653" fill="#F0534F" width="11.02" height="11.02"/>
	</g>
</g>
<g>
	<g>
		<path fill="#F0534F" d="M284.014,97.849V45.432h-89.689v52.417c0,20.114,1.639,40.237,4.854,60.11h-4.852v11.02h6.803
			c6.438,33.531,17.385,66.206,32.53,96.77l-0.026,72.424h0.02c-0.129,10.078-9.164,10.807-11.949,10.807h-21.5V360h21.5
			c7.197,0,13.238-2.602,17.317-7.021c3.94,4.445,9.845,7.021,17.005,7.021h22.056v-11.02h-22.056
			c-3.412,0-11.346-1.471-11.346-11.021h-0.027l0.027-72.208C270.412,213.825,284.014,155.8,284.014,97.849z M239.17,251.748
			c-9.013-19.541-16.289-39.895-21.751-60.727h10.704V180h-11.756v6.901c-7.273-29.101-11.021-59.086-11.021-89.052v-8.216h11.021
			v-11.02h-11.021v-22.16h67.648v22.16h-33.852v11.02h33.852v8.216c0,5.099-0.111,10.198-0.327,15.294h-10.749v11.02h10.11
			c-2.066,28.409-7.457,56.596-15.987,83.787v-5.174h-11.02v11.02h9.135C249.866,226.715,244.867,239.395,239.17,251.748z"/>
	</g>
</g>
<g>
	<g>
		<path fill="#F0534F" d="M171.606,97.849V45.432H81.917v52.417c0,57.951,13.602,115.975,39.334,167.902l-0.026,72.423h0.02
			c-0.128,10.078-9.165,10.806-11.949,10.806h-21.5V360h21.5c7.196,0,13.238-2.602,17.316-7.021
			c3.941,4.445,9.845,7.021,17.006,7.021h22.055v-11.02h-22.055c-3.412,0-11.347-1.471-11.347-11.021h-0.026l0.026-72.208
			C158.004,213.825,171.606,155.8,171.606,97.849z M126.762,251.748c-4.069-8.821-7.779-17.809-11.133-26.932h5.23v-11.02h-9.082
			c-5.5-16.562-9.828-33.52-12.94-50.694h5.858v-11.02h-7.688c-2.696-17.952-4.068-36.096-4.068-54.233v-8.216h33.796v-11.02H92.938
			V56.453h67.648v22.16H149.51v11.02h11.076v8.216c0,43.318-7.828,86.676-22.831,127.343v-0.375h-11.02v11.02h6.901
			C131.468,241.194,129.181,246.502,126.762,251.748z"/>
	</g>
</g>
</svg>
