<?xml version="1.0" encoding="utf-8"?>
<!-- Generator: Adobe Illustrator 16.0.0, SVG Export Plug-In . SVG Version: 6.00 Build 0)  -->
<!DOCTYPE svg PUBLIC "-//W3C//DTD SVG 1.1//EN" "http://www.w3.org/Graphics/SVG/1.1/DTD/svg11.dtd">
<svg version="1.1" id="Layer_1" xmlns="http://www.w3.org/2000/svg" xmlns:xlink="http://www.w3.org/1999/xlink" x="0px" y="0px"
	 width="360px" height="360px" viewBox="0 0 360 360" enable-background="new 0 0 360 360" xml:space="preserve">
<g>
	<g>
		<path fill="#F0534F" d="M354.83,84.262c-3.129-0.776-6.371,0.743-7.774,3.645c-12.429,25.679-31.726,47.397-55.806,62.808
			c-24.725,15.821-53.383,24.184-82.879,24.184c-34.297,0-66.753-11.033-93.855-31.904c-26.456-20.372-63.416-19.051-87.883,3.142
			l-0.69,0.626c-1.268,1.149-2.482,2.344-3.65,3.573c-6.735-11.514-16.587-37.366,2.385-71.388c1.833-3.285,0.655-7.436-2.63-9.267
			c-3.288-1.833-7.436-0.654-9.268,2.631c-15.914,28.532-14.09,52.388-9.758,67.376c2.944,10.188,7.41,17.756,10.462,22.127
			c-7.141,11.703-10.626,25.391-9.793,39.469c1.227,20.726,11.634,39.515,28.553,51.555c35.254,25.085,76.834,38.345,120.242,38.345
			c54.142,0,105.392-20.721,144.308-58.344c38.816-37.528,61.263-87.858,63.203-141.719
			C360.111,87.899,357.956,85.039,354.83,84.262z M34.727,208.353c-0.036,7.915-2.134,15.659-6.012,22.454
			c-6.726-8.607-10.761-19.111-11.425-30.328c-0.98-16.572,5.509-32.474,17.806-43.625l0.69-0.626
			c10.286-9.329,23.342-14.041,36.497-14.041c11.883,0,23.846,3.844,33.919,11.601c1.382,1.063,2.78,2.097,4.187,3.112
			c-7.159,4.424-15.43,6.804-23.991,6.804c-3.557,0-7.141-0.425-10.654-1.264c-1.802-0.432-3.709-0.106-5.27,0.899
			c-1.561,1.004-2.644,2.603-2.998,4.426c-2.972,15.267-13.855,28.246-28.402,33.871c-2.625,1.015-4.355,3.539-4.355,6.353
			C34.718,208.109,34.722,208.23,34.727,208.353z M287.322,223.043c-36.36,35.154-84.246,54.516-134.837,54.516
			c-40.561,0-79.409-12.388-112.343-35.822c-0.502-0.357-0.983-0.737-1.472-1.109c5.484-8.383,8.775-18.07,9.521-28.101
			c14.732-7.077,26.048-20.134,30.991-35.64c2.4,0.295,4.812,0.445,7.215,0.445c13.206,0,25.883-4.358,36.233-12.357
			c25.826,15.457,55.107,23.55,85.741,23.55c32.104,0,63.302-9.106,90.222-26.333c17.246-11.037,32.237-25.047,44.329-41.306
			C335.393,159.606,316.208,195.117,287.322,223.043z"/>
	</g>
</g>
</svg>
