<?xml version="1.0" encoding="utf-8"?>
<!-- Generator: Adobe Illustrator 16.0.0, SVG Export Plug-In . SVG Version: 6.00 Build 0)  -->
<!DOCTYPE svg PUBLIC "-//W3C//DTD SVG 1.1//EN" "http://www.w3.org/Graphics/SVG/1.1/DTD/svg11.dtd">
<svg version="1.1" id="Layer_1" xmlns="http://www.w3.org/2000/svg" xmlns:xlink="http://www.w3.org/1999/xlink" x="0px" y="0px"
	 width="360px" height="360px" viewBox="0 0 360 360" enable-background="new 0 0 360 360" xml:space="preserve">
<g>
	<g>
		<path fill="#F0534F" d="M284.718,229.998c0-19.463-9.492-53.613-15.984-69.477c-10.723-26.224,0-70.521,0-70.521h-16.886
			l25.784-80.205c0.23-0.725,0.362-1.494,0.362-2.297c0-4.141-3.361-7.498-7.502-7.498c-3.341,0-6.175,2.186-7.142,5.208V5.203
			L263.34,5.23c0,0.022-0.012,0.043-0.022,0.066L236.093,90h-33.102h-15.748c-10.372-17.902-29.751-29.954-51.965-29.954
			c-33.135,0-59.996,26.823-59.996,59.909h66.346c0.912,13.409,0.417,28.806-4.395,40.566
			c-6.482,15.864-15.975,50.016-15.975,69.479c0,45.62,32.608,67.482,74.229,69.789v45.209h-37.502
			c-4.141,0-7.503,3.362-7.503,7.504c0,4.143,3.362,7.498,7.503,7.498h90.006c4.142,0,7.504-3.355,7.504-7.498
			c0-4.142-3.362-7.504-7.504-7.504h-37.497v-45.209C252.111,297.482,284.718,275.619,284.718,229.998z M92.858,104.958
			c1.417-3.966,3.373-7.674,5.779-11.036l11.042,11.036H92.858z M127.784,101.849l-18.522-18.512
			c5.416-3.845,11.71-6.514,18.522-7.663V101.849z M247.023,105.002h3.791l0,0c-0.373,2.812-0.736,5.845-1.033,9.031
			c-1.945,20.835-0.385,37.969,4.614,50.965H227.73L247.023,105.002z M202.991,105.002h28.278l-19.293,59.997h-60.396
			c4.998-12.997,6.558-30.13,4.614-50.965c-0.297-3.186-0.66-6.219-1.043-9.031H202.991z M142.781,75.674
			c6.812,1.148,13.106,3.818,18.512,7.663L154.625,90h-11.844V75.674z M202.99,285.002c-20.209,0-37.018-4.752-48.608-13.738
			c-12.03-9.316-18.127-23.203-18.127-41.266c0-12.584,4.965-33.893,10.008-49.998h113.45c5.043,16.105,10.009,37.413,10.009,49.998
			c0,18.062-6.098,31.949-18.128,41.266C239.992,280.25,223.194,285.002,202.99,285.002z"/>
	</g>
</g>
<g>
	<g>
		<path fill="#F0534F" d="M255.494,240.002c-4.152,0-7.504,3.356-7.504,7.498c0,4.143,3.352,7.498,7.504,7.498
			c4.131,0,7.492-3.355,7.492-7.498C262.986,243.358,259.625,240.002,255.494,240.002z"/>
	</g>
</g>
<g>
	<g>
		<path fill="#F0534F" d="M240.334,209.998c-4.143,0-7.504,3.361-7.504,7.504s3.361,7.498,7.504,7.498
			c4.142,0,7.503-3.355,7.503-7.498S244.476,209.998,240.334,209.998z"/>
	</g>
</g>
</svg>
