<?xml version="1.0" encoding="utf-8"?>
<!-- Generator: Adobe Illustrator 16.0.0, SVG Export Plug-In . SVG Version: 6.00 Build 0)  -->
<!DOCTYPE svg PUBLIC "-//W3C//DTD SVG 1.1//EN" "http://www.w3.org/Graphics/SVG/1.1/DTD/svg11.dtd">
<svg version="1.1" id="Layer_1" xmlns="http://www.w3.org/2000/svg" xmlns:xlink="http://www.w3.org/1999/xlink" x="0px" y="0px"
	 width="360px" height="360px" viewBox="0 0 360 360" enable-background="new 0 0 360 360" xml:space="preserve">
<g>
	<g>
		<g>
			<path fill="#F0534F" d="M180,72.003h18c3.312,0,6-2.688,6-6v-18c0-13.236-10.764-24-24-24h-18c-3.312,0-6,2.688-6,6v18
				C156,61.239,166.771,72.003,180,72.003z M168,36.003h12c6.618,0,12,5.382,12,12v12h-12c-6.618,0-12-5.382-12-12V36.003
				L168,36.003z"/>
			<path fill="#F0534F" d="M222,72.003h18c13.236,0,23.999-10.764,23.999-24v-18c0-3.312-2.688-6-5.999-6h-18
				c-13.23,0-24,10.764-24,24v18C216,69.315,218.688,72.003,222,72.003z M228,48.003c0-6.618,5.381-12,12-12h12v12
				c0,6.618-5.382,12-12,12h-12V48.003z"/>
			<path fill="#F0534F" d="M114.181,240.002h-0.06c-3.312,0-5.97,2.688-5.97,6c0,3.311,2.718,5.999,6.03,5.999
				c3.318,0,6-2.688,6-5.999C120.181,242.689,117.499,240.002,114.181,240.002z"/>
			<path fill="#F0534F" d="M299.998,204.002c0-16.488,0-66.659-10.848-115.307c-0.611-2.742-3.047-4.692-5.855-4.692H123.708
				L83.371,3.321c-1.482-2.963-5.082-4.17-8.052-2.688c-2.964,1.488-4.164,5.088-2.682,8.052l37.655,75.317H76.705
				c-2.808,0-5.244,1.95-5.856,4.692C60,137.342,60,187.514,60,204.002c0,64.139,50.627,116.537,113.999,119.692V348h-48
				c-3.312,0-6,2.688-6,6c0,3.312,2.688,6,6,6h107.999c3.312,0,6-2.688,6-6c0-3.312-2.688-6-6-6h-48v-24.306
				C249.371,320.539,299.998,268.141,299.998,204.002z M180,312.001c-59.549,0-107.999-48.45-107.999-107.999
				c0-10.037,0.018-32.838,2.55-59.999h45.449c3.312,0,6-2.688,6-6c0-3.312-2.688-6-6-6H75.805c1.374-11.658,3.216-23.843,5.748-36
				h196.894C288,141.873,288,188.379,288,204.003C288,263.551,239.556,312.001,180,312.001z"/>
			<path fill="#F0534F" d="M152.083,144.002h111.917c3.312,0,5.999-2.688,5.999-6s-2.688-6-5.999-6H146.683l-9.21-20.46
				c-1.362-3.024-4.926-4.368-7.932-3.012c-3.024,1.362-4.368,4.914-3.012,7.932l53.999,119.999
				c1.002,2.227,3.186,3.541,5.479,3.541c0.822,0,1.662-0.168,2.453-0.528c3.025-1.362,4.375-4.914,3.013-7.932L152.083,144.002z"/>
			<path fill="#F0534F" d="M210.18,180.002h-0.061c-3.311,0-5.97,2.688-5.97,6c0,3.311,2.718,5.999,6.03,5.999
				c3.318,0,6-2.688,6-5.999C216.18,182.689,213.498,180.002,210.18,180.002z"/>
			<path fill="#F0534F" d="M234.18,216.002h-0.06c-3.312,0-5.97,2.688-5.97,5.999s2.718,6,6.029,6c3.318,0,6-2.688,6-6
				S237.498,216.002,234.18,216.002z"/>
			<path fill="#F0534F" d="M174.18,276.002h-0.06c-3.312,0-5.97,2.688-5.97,5.999s2.718,5.999,6.03,5.999c3.318,0,6-2.688,6-5.999
				S177.498,276.002,174.18,276.002z"/>
			<path fill="#F0534F" d="M264.149,210.002c0,3.312,2.718,6,6.03,6c3.318,0,6-2.688,6-6c0-3.312-2.682-6-6-6h-0.061
				C266.807,204.002,264.149,206.689,264.149,210.002z"/>
		</g>
	</g>
</g>
</svg>
