<?xml version="1.0" encoding="utf-8"?>
<!-- Generator: Adobe Illustrator 16.0.0, SVG Export Plug-In . SVG Version: 6.00 Build 0)  -->
<!DOCTYPE svg PUBLIC "-//W3C//DTD SVG 1.1//EN" "http://www.w3.org/Graphics/SVG/1.1/DTD/svg11.dtd">
<svg version="1.1" id="Layer_1" xmlns="http://www.w3.org/2000/svg" xmlns:xlink="http://www.w3.org/1999/xlink" x="0px" y="0px"
	 width="360px" height="360px" viewBox="0 0 360 360" enable-background="new 0 0 360 360" xml:space="preserve">
<g>
	<polygon fill="#F0534F" points="219.293,11.046 253.167,11.046 253.167,0 208.246,0 208.246,95.576 219.293,95.576 	"/>
	<rect x="112.459" y="180.107" fill="#F0534F" width="11.256" height="11.045"/>
	<rect x="129.346" y="191.359" fill="#F0534F" width="11.257" height="11.046"/>
	<rect x="168.744" y="196.993" fill="#F0534F" width="11.256" height="11.046"/>
	<rect x="151.857" y="208.245" fill="#F0534F" width="11.256" height="11.046"/>
	<rect x="230.654" y="191.359" fill="#F0534F" width="11.258" height="11.046"/>
	<rect x="191.256" y="180.107" fill="#F0534F" width="11.258" height="11.045"/>
	<path fill="#F0534F" d="M118.193,101.309v21.968c-12.939-2.576-22.723-14.016-22.723-27.7c0-15.576,12.672-28.246,28.246-28.246
		s28.246,12.672,28.246,28.246h11.046c0-21.667-17.627-39.293-39.293-39.293c-21.665,0-39.292,17.627-39.292,39.293
		c0,19.792,14.711,36.203,33.77,38.896v5.898c-22.289-2.732-39.607-21.78-39.607-44.795c0-24.885,20.246-45.131,45.13-45.131
		c24.886,0,45.132,20.246,45.132,45.131h11.046c0-30.976-25.202-56.178-56.178-56.178S67.54,64.599,67.54,95.576
		c0,30.977,25.201,56.178,56.177,56.178h5.523v-39.397h174.566C300.905,178.135,246.482,230.76,180,230.76
		c-66.482,0-120.905-52.625-123.806-118.405h5.612v-11.046h-16.78v5.523c0,72.574,57.578,131.943,129.45,134.852v73.396h11.046
		v-73.396c71.874-2.908,129.45-62.277,129.45-134.852v-5.523H118.193z"/>
	<polygon fill="#F0534F" points="208.246,118.088 208.246,157.592 78.69,157.592 78.69,168.638 208.246,168.638 208.246,213.77 
		219.293,213.77 219.293,168.638 281.309,168.638 281.309,157.592 219.293,157.592 219.293,118.088 	"/>
	<path fill="#F0534F" d="M227.84,326.44h-42.316v-5.733h-11.046v5.733h-42.153c-13.851,0-25.129,11.222-25.221,25.052L106.604,360
		h146.956l-0.499-8.508C252.97,337.662,241.691,326.44,227.84,326.44z M118.408,348.954c1.269-6.526,7.025-11.467,13.916-11.467
		h95.517c6.891,0,12.648,4.941,13.916,11.467H118.408z"/>
</g>
</svg>
