<?xml version="1.0" encoding="utf-8"?>
<!-- Generator: Adobe Illustrator 16.0.0, SVG Export Plug-In . SVG Version: 6.00 Build 0)  -->
<!DOCTYPE svg PUBLIC "-//W3C//DTD SVG 1.1//EN" "http://www.w3.org/Graphics/SVG/1.1/DTD/svg11.dtd">
<svg version="1.1" id="Capa_1" xmlns="http://www.w3.org/2000/svg" xmlns:xlink="http://www.w3.org/1999/xlink" x="0px" y="0px"
	 width="360px" height="360px" viewBox="0 0 360 360" enable-background="new 0 0 360 360" xml:space="preserve">
<path fill="#F0534F" d="M236.117,206.615c3.713,0,7.541-0.377,11.465-1.137c19.186-3.715,39.73-16.357,61.064-37.581
	c44.341-44.109,51.068-123.321,51.333-126.672c0.153-1.938-0.55-3.845-1.922-5.219s-3.278-2.082-5.217-1.93
	c-3.339,0.259-82.306,6.846-126.636,50.945c-21.356,21.244-34.162,41.652-38.062,60.657c-3.164,15.415-0.331,29.36,8.184,40.757
	c-35.7,28.811-73.704,52.663-103.669,69.715c-3.537,2.013-7.017,3.962-10.435,5.852c4.667-10.041,9.942-24.495,14.021-44.178
	c24.33-0.926,49.074-24.486,52.361-77.058c3.097-49.543-39.534-91.424-41.35-93.183c-2.349-2.275-6.002-2.502-8.616-0.539
	c-2.021,1.519-49.537,37.764-52.633,87.308c-3.039,48.618,15.221,74.912,36.985,81.716c-2.246,10.65-4.778,19.349-7.165,26.203
	c-7.157,20.555-14.535,29.438-14.719,29.655c-0.004,0.005-0.009,0.011-0.013,0.016c-1.468,1.698-3.26,3.096-5.257,4.122
	c-30.552,15.701-51.458,24.443-51.741,24.561c-3.389,1.41-4.994,5.3-3.585,8.689c1.062,2.555,3.534,4.096,6.14,4.096
	c0.85,0,1.715-0.164,2.548-0.51c0.393-0.164,39.841-16.649,89.862-45.101c7.398-4.207,15.282-8.827,23.495-13.825
	c4.69,3.689,21.091,14.971,54.592,22.764c0.658,22.127,21.664,44.919,69.111,48.937c2.151,0.183,4.284,0.269,6.405,0.269
	c42.184,0,77.495-34.393,79.05-35.928c2.325-2.299,2.635-5.945,0.729-8.602c-1.338-1.865-33.284-45.715-78.243-49.521
	c-21.439-1.817-40.031,1.087-53.766,8.394c-10.578,5.627-17.869,13.688-21.221,23.218c-23.612-5.632-37.656-12.95-44.344-17.165
	c22.674-14.31,47.195-31.246,70.742-50.323C214.349,203.025,224.685,206.615,236.117,206.615z M68.114,186.781
	c-7.103-12.671-10.161-30.513-8.843-51.599c2.187-34.967,31.346-63.723,42.791-73.723c10.114,11.353,35.461,43.513,33.276,78.478
	c-1.318,21.085-6.575,38.408-15.2,50.095c-6.082,8.242-13.406,13.097-21.43,14.269c2.862-18.106,4.646-39.887,4.339-65.818
	c-0.044-3.67-3.017-6.619-6.725-6.567c-3.67,0.044-6.61,3.054-6.567,6.725c0.304,25.714-1.552,47-4.324,64.251
	C78.551,200.329,72.652,194.876,68.114,186.781z M249.41,271.303c-22.593-0.231-41.453-2.217-57.012-5.039
	c2.5-5.695,7.323-10.542,14.277-14.24c11.471-6.103,27.518-8.482,46.4-6.885c30.812,2.609,55.753,28.597,64.854,39.379
	c-10.789,9.101-39.742,30.527-70.551,27.913c-18.886-1.599-34.302-6.644-44.584-14.587c-6.88-5.315-10.966-11.571-12.067-18.332
	c16.152,2.867,35.523,4.848,58.545,5.082c0.023,0,0.047,0,0.07,0c3.638,0,6.606-2.931,6.645-6.578
	C256.025,274.346,253.08,271.34,249.41,271.303z M201.162,148.351c3.318-16.168,15.219-34.809,34.416-53.905
	c32.963-32.79,89.307-43.306,110.194-46.173c-2.902,20.921-13.534,77.407-46.501,110.201
	c-19.155,19.055-37.902,30.795-54.217,33.954c-11.117,2.152-20.816,0.42-28.93-5.139c14.756-12.542,28.947-25.915,41.844-40.007
	c2.578-2.818,2.271-7.256-0.76-9.683c-2.769-2.216-6.82-1.72-9.217,0.896c-12.729,13.892-26.777,27.083-41.393,39.452
	C200.662,169.679,198.822,159.757,201.162,148.351z"/>
</svg>
