<?xml version="1.0" encoding="utf-8"?>
<!-- Generator: Adobe Illustrator 16.0.0, SVG Export Plug-In . SVG Version: 6.00 Build 0)  -->
<!DOCTYPE svg PUBLIC "-//W3C//DTD SVG 1.1//EN" "http://www.w3.org/Graphics/SVG/1.1/DTD/svg11.dtd">
<svg version="1.1" id="Layer_1" xmlns="http://www.w3.org/2000/svg" xmlns:xlink="http://www.w3.org/1999/xlink" x="0px" y="0px"
	 width="360px" height="360px" viewBox="0 0 360 360" enable-background="new 0 0 360 360" xml:space="preserve">
<g>
	<g>
		<g>
			<path fill="#F0534F" d="M252.287,101.914h-0.066c-3.312,0-5.966,2.689-5.966,6.002c0,3.313,2.713,6.002,6.032,6.002
				c3.313,0,6.002-2.689,6.002-6.002C258.289,104.603,255.601,101.914,252.287,101.914z"/>
			<path fill="#F0534F" d="M276.117,197.954c0-3.313-2.689-6.002-6.002-6.002c-3.32,0-6.002,2.688-6.002,6.002
				c0,62.89-56.551,114.048-126.054,114.048c-67.283,0-122.417-47.941-125.88-108.045h12.162
				c3.62,35.732,38.494,96.04,113.718,96.04c79.606,0,114.048-67.571,114.048-102.044c0-3.312-2.689-6.002-6.002-6.002H54.023
				c-3.319,0-6.002,2.689-6.002,6.002c0,3.313,2.683,6.003,6.002,6.003h66.922l-46.664,37.331c-2.587,2.07-3.007,5.846-0.937,8.439
				c1.183,1.482,2.929,2.25,4.688,2.25c1.315,0,2.641-0.432,3.746-1.314l50.277-40.217v59.539c0,3.313,2.683,6.003,6.002,6.003
				c3.313,0,6.002-2.689,6.002-6.003v-59.539l50.271,40.217c1.104,0.883,2.431,1.314,3.745,1.314c1.766,0,3.506-0.768,4.694-2.25
				c2.071-2.594,1.646-6.369-0.937-8.439l-46.669-37.33h84.57c-3.632,31.609-34.887,84.035-101.677,84.035
				c-71.232,0-102.044-59.623-102.044-90.038c0-3.313-2.689-6.002-6.002-6.002H6.002c-3.32,0-6.002,2.688-6.002,6.002
				c0,69.51,61.935,126.054,138.059,126.054S276.117,267.464,276.117,197.954z"/>
			<path fill="#F0534F" d="M264.293,89.908c3.312,0,6.002-2.689,6.002-6.002c0-3.313-2.689-6.002-6.002-6.002h-0.066
				c-3.308,0-5.967,2.689-5.967,6.002S260.973,89.908,264.293,89.908z"/>
			<path fill="#F0534F" d="M294.305,119.921c0-3.313-2.689-6.002-6.002-6.002h-0.066c-3.307,0-5.967,2.689-5.967,6.002
				c0,3.313,2.714,6.002,6.033,6.002C291.615,125.923,294.305,123.234,294.305,119.921z"/>
			<path fill="#F0534F" d="M338.923,112.604c-35.854-62.108-108.401-91.425-170.029-69.251c-7.665-5.468-17.972-6.104-26.291-1.303
				c-8.319,4.802-12.918,14.04-12.018,23.417c-30.799,26.015-47.594,65.403-46.189,108.67c0.108,3.313,2.923,5.918,6.194,5.81
				c3.313-0.114,5.912-2.881,5.805-6.194c-1.32-40.728,14.875-77.601,44.443-101.173c1.867-1.488,2.671-3.931,2.059-6.236
				c-1.44-5.415,0.907-11.123,5.708-13.896c4.796-2.773,10.925-1.951,14.886,2.005c1.692,1.687,4.226,2.215,6.435,1.333
				c56.844-22.312,125.033,4.682,158.593,62.823c33.566,58.134,22.863,130.687-24.887,168.761c-1.867,1.489-2.677,3.932-2.059,6.237
				c1.435,5.409-0.906,11.129-5.715,13.896c-4.796,2.779-10.918,1.957-14.875-1.998c-1.686-1.688-4.219-2.216-6.434-1.345
				c-14.617,5.738-30.145,8.368-46.227,7.762c-3.049-0.174-6.098,2.461-6.213,5.78c-0.125,3.308,2.462,6.093,5.781,6.219
				c1.621,0.061,3.248,0.091,4.862,0.091c14.784,0,29.16-2.491,42.822-7.407c7.665,5.462,17.96,6.104,26.284,1.297
				c8.326-4.797,12.924-14.04,12.023-23.417C363.887,252.182,374.775,174.706,338.923,112.604z"/>
		</g>
	</g>
</g>
</svg>
