<?xml version="1.0" encoding="utf-8"?>
<!-- Generator: Adobe Illustrator 16.0.0, SVG Export Plug-In . SVG Version: 6.00 Build 0)  -->
<!DOCTYPE svg PUBLIC "-//W3C//DTD SVG 1.1//EN" "http://www.w3.org/Graphics/SVG/1.1/DTD/svg11.dtd">
<svg version="1.1" id="Layer_1" xmlns="http://www.w3.org/2000/svg" xmlns:xlink="http://www.w3.org/1999/xlink" x="0px" y="0px"
	 width="263.641px" height="81.609px" viewBox="0 0 263.641 81.609" enable-background="new 0 0 263.641 81.609"
	 xml:space="preserve">
<g>
	<path fill="#FFFFFF" stroke="#FFFFFF" stroke-width="2" stroke-miterlimit="10" d="M352.749,218.071h-39.062v-39.062h39.062
		V218.071z M316.694,215.065h33.051v-33.052h-33.051V215.065z"/>
</g>
<g>
	<path fill="#FFFFFF" stroke="#FFFFFF" stroke-width="2" stroke-miterlimit="10" d="M605.874,281.229l-42.961-40.039l1.025-1.101
		c5.529-5.938,13.359-9.344,21.482-9.344c7.451,0,14.562,2.799,20.02,7.883c5.734,5.35,9.049,12.605,9.32,20.447
		c0.275,7.838-2.518,15.314-7.859,21.055L605.874,281.229z M567.192,241.069l38.506,35.886c4.146-4.979,6.295-11.235,6.062-17.771
		c-0.248-7.036-3.221-13.557-8.369-18.354c-4.896-4.562-11.275-7.076-17.969-7.076C578.635,233.75,572.073,236.401,567.192,241.069z
		"/>
</g>
<g>
	<path fill="#FFFFFF" d="M403.797,227.368h-10.711v-5.506h27.568v5.506h-10.709v28.709h-6.148V227.368z"/>
	<path fill="#FFFFFF" d="M434.534,221.863h6.146v34.215h-6.146V221.863z"/>
	<path fill="#FFFFFF" d="M458.032,221.863h10.709c6.994,0,12.1,3.67,12.1,10.065s-5.104,9.918-12.1,9.918h-4.607v14.229h-6.102
		V221.863L458.032,221.863z M468.741,236.094c4.217,0,6.002-1.438,6.002-4.166c0-2.727-1.834-4.312-6.002-4.312h-4.607v8.479
		L468.741,236.094L468.741,236.094z"/>
	<path fill="#FFFFFF" d="M492.04,246.407l6.098-1.537c0.398,3.817,3.324,5.899,6.994,5.899c3.617,0,5.652-1.638,5.652-4.71
		c0-5.9-16.463-4.661-16.463-15.521c0-5.65,4.904-9.172,10.512-9.172c4.412,0,8.229,1.834,10.561,5.998l-5.104,3.125
		c-1.193-2.33-3.223-3.671-5.455-3.671c-2.332,0-4.264,1.687-4.264,3.771c0,5.453,16.461,4.214,16.461,15.568
		c0,6.395-5.355,10.311-11.898,10.311C499.081,256.472,493.129,253.15,492.04,246.407z"/>
	<path fill="#FFFFFF" d="M542.26,242.738l-13.932-20.875h7.236l9.77,15.37l9.717-15.37h7.24l-13.881,20.875v13.34h-6.15V242.738z"/>
</g>
<g>
	<path fill="#FFFFFF" stroke="#FFFFFF" stroke-width="2" stroke-miterlimit="10" d="M586.573,284.668H256.433v-87.633h330.142
		L586.573,284.668L586.573,284.668z M259.437,281.667h324.132v-81.625H259.437V281.667z"/>
</g>
<g>
	
		<rect x="341.406" y="208.539" transform="matrix(0.8313 0.5557 -0.5557 0.8313 202.1386 -146.7789)" fill="#FFFFFF" stroke="#FFFFFF" stroke-width="2" stroke-miterlimit="10" width="3.005" height="102.245"/>
</g>
<g>
	<g>
		<path fill="#FFFFFF" d="M-53.585,177.193h-41.86v-41.857h41.86V177.193z M-90.795,172.542h32.559v-32.558h-32.559V172.542z"/>
	</g>
	<g>
		<path fill="#FFFFFF" d="M211.542,242.693l-45.467-42.378l1.585-1.7c5.855-6.285,14.145-9.891,22.739-9.891
			c7.89,0,15.412,2.963,21.187,8.344c12.535,11.686,13.229,31.389,1.547,43.924L211.542,242.693z M172.722,200.154l38.514,35.896
			c8.33-10.67,7.265-26.178-2.821-35.577c-4.91-4.574-11.31-7.097-18.017-7.097C183.868,193.375,177.546,195.823,172.722,200.154z"
			/>
	</g>
	<g>
		<path fill="#FFFFFF" d="M-9.5,181.443c-1.188,0-2.242,0.12-3.172,0.359c-0.932,0.24-1.764,0.658-2.5,1.25
			c-0.737,0.595-1.396,1.419-1.972,2.476c-0.575,1.06-1.104,2.402-1.586,4.037h-0.624v-8.795H10.78v8.795h-0.625
			c-0.479-1.635-1.008-2.979-1.585-4.037c-0.575-1.057-1.232-1.881-1.97-2.476c-0.739-0.592-1.572-1.01-2.501-1.25
			c-0.93-0.239-1.986-0.359-3.17-0.359h-1.73v32.872H3.62v0.675H-12.19v-0.675h4.421v-32.872H-9.5z"/>
		<path fill="#FFFFFF" d="M39.954,180.77v0.673H35.53v32.872h4.425v0.675H24.142v-0.675h4.42v-32.872h-4.42v-0.673H39.954
			L39.954,180.77z"/>
		<path fill="#FFFFFF" d="M68.883,214.315v0.675H53.072v-0.675h4.423v-32.872h-4.423v-0.673h4.423c1.634,0,3.269-0.022,4.9-0.071
			c1.634-0.048,3.271-0.072,4.902-0.072c1.44,0,2.996,0.121,4.661,0.36c1.665,0.24,3.204,0.688,4.612,1.347
			c1.408,0.655,2.588,1.569,3.532,2.738c0.945,1.17,1.417,2.686,1.417,4.541c0,1.25-0.304,2.428-0.912,3.532
			c-0.607,1.104-1.539,2.065-2.788,2.884s-2.818,1.467-4.71,1.946c-1.891,0.479-4.115,0.722-6.68,0.722h-1.97v15.618H68.883
			L68.883,214.315z M65.952,198.024c2.722,0,4.69-0.616,5.908-1.853c1.219-1.231,1.827-3.321,1.827-6.271
			c0-2.786-0.526-4.917-1.585-6.394c-1.059-1.473-2.979-2.209-5.769-2.209c-0.354,0-0.688,0.017-1.008,0.048
			c-0.321,0.032-0.608,0.063-0.866,0.097v16.581H65.952z"/>
		<path fill="#FFFFFF" d="M95.94,204.32c0.063,0.387,0.178,0.891,0.336,1.516c0.16,0.623,0.396,1.297,0.698,2.021
			c0.304,0.724,0.688,1.458,1.153,2.21c0.465,0.753,1.034,1.45,1.706,2.092c0.734,0.736,1.449,1.299,2.138,1.684
			c0.689,0.386,1.347,0.664,1.972,0.842c0.624,0.177,1.219,0.271,1.777,0.288c0.56,0.018,1.081,0.024,1.562,0.024
			c1.696,0,3.091-0.269,4.182-0.795c1.088-0.527,1.946-1.178,2.57-1.945c0.625-0.771,1.064-1.575,1.32-2.428
			c0.256-0.851,0.386-1.595,0.386-2.233c0-1.187-0.279-2.162-0.842-2.933c-0.562-0.771-1.307-1.408-2.232-1.925
			c-0.932-0.512-1.988-0.942-3.174-1.298c-1.188-0.354-2.402-0.712-3.651-1.081c-1.251-0.364-2.468-0.801-3.651-1.297
			c-1.188-0.496-2.244-1.14-3.174-1.924c-0.93-0.783-1.674-1.755-2.232-2.906c-0.562-1.151-0.844-2.599-0.844-4.326
			c0-1.278,0.289-2.514,0.866-3.696c0.576-1.188,1.377-2.235,2.402-3.147c1.023-0.913,2.251-1.649,3.678-2.211
			c1.425-0.562,2.97-0.843,4.637-0.843c1.059,0,1.986,0.099,2.787,0.289c0.8,0.189,1.505,0.394,2.114,0.602
			c0.608,0.209,1.146,0.409,1.61,0.602c0.464,0.192,0.891,0.289,1.272,0.289c0.448,0,0.745-0.072,0.888-0.218
			c0.146-0.146,0.299-0.407,0.457-0.793h0.771v9.132H116.8c-0.385-1.121-0.793-2.228-1.227-3.313
			c-0.435-1.091-0.985-2.072-1.657-2.957c-0.674-0.882-1.521-1.595-2.548-2.14c-1.025-0.543-2.323-0.814-3.895-0.814
			c-1.282,0-2.412,0.177-3.389,0.527c-0.979,0.354-1.803,0.815-2.478,1.396c-0.672,0.577-1.186,1.22-1.538,1.923
			c-0.351,0.705-0.524,1.428-0.524,2.163c0,1.121,0.295,2.052,0.887,2.787c0.594,0.735,1.372,1.367,2.332,1.896
			c0.961,0.527,2.061,0.983,3.291,1.369c1.234,0.385,2.501,0.784,3.797,1.2c1.299,0.419,2.564,0.874,3.797,1.371
			c1.232,0.496,2.332,1.129,3.292,1.896c0.963,0.771,1.737,1.699,2.331,2.789c0.596,1.088,0.893,2.437,0.893,4.037
			c0,1.565-0.321,3.06-0.963,4.469c-0.643,1.41-1.545,2.645-2.717,3.701c-1.17,1.058-2.562,1.896-4.18,2.521
			c-1.62,0.626-3.422,0.938-5.408,0.938c-0.993,0-1.979-0.1-2.955-0.289c-0.979-0.19-1.892-0.395-2.738-0.604
			c-0.85-0.207-1.604-0.406-2.261-0.602c-0.655-0.191-1.145-0.289-1.466-0.289c-0.448,0-0.77,0.07-0.96,0.219
			c-0.191,0.146-0.369,0.438-0.528,0.891h-0.771V204.32H95.94z"/>
		<path fill="#FFFFFF" d="M147.7,180.77v0.673h-3.799l9.806,16.771l8.845-16.771h-4.182v-0.673h9.178v0.673h-4.18l-9.276,17.639
			v15.233h4.47v0.675h-15.857v-0.675h4.423v-13.407l-11.15-19.465h-3.749v-0.673H147.7L147.7,180.77z"/>
	</g>
	<g>
		<path fill="#FFFFFF" d="M192.359,245.922h-342.234v-91.984h342.234V245.922z M-145.227,241.271h332.937v-82.684h-332.937V241.271z
			"/>
	</g>
	<g>
		
			<rect x="-66.874" y="166.537" transform="matrix(0.8315 0.5555 -0.5555 0.8315 110.9443 72.8018)" fill="#FFFFFF" width="4.648" height="105.537"/>
	</g>
</g>
<g>
	<g>
		<polygon fill="#F0534F" points="-16.606,-41.059 -19.319,-42.859 42.332,-134.559 45.044,-132.76 		"/>
		<path fill="#F0534F" d="M-16.227-39.158l-5.005-3.32l63.188-93.981l5.003,3.318L-16.227-39.158z M-17.405-43.24l0.421,0.279
			l60.115-89.419l-0.419-0.278L-17.405-43.24z"/>
	</g>
</g>
<g>
	<path fill="#F0534F" d="M110.818-122.189c-1.153-7.207-3.904-9.353-10.837-9.462v29.32c0,3.629,1.32,4.62,5.446,4.674v1.651H85.623
		v-1.651c4.016,0,5.336-0.935,5.336-4.674v-29.32c-6.933,0.109-9.683,2.255-10.836,9.462h-1.486v-11.607h33.666v11.606
		L110.818-122.189L110.818-122.189z"/>
	<path fill="#F0534F" d="M125.677-96.005v-1.651c3.851,0,5.28-0.823,5.28-4.345v-25.689c0-3.521-1.541-4.455-5.28-4.455v-1.65
		h19.583v1.65c-3.961,0.108-5.281,0.825-5.281,4.455v25.688c0,3.575,1.814,4.345,5.281,4.345v1.652H125.677L125.677-96.005z"/>
	<path fill="#F0534F" d="M176.125-112.783h-3.576v10.453c0,3.023,0.385,4.29,4.951,4.674v1.651h-18.592v-1.651
		c3.244-0.163,4.617-1.209,4.617-4.674v-25.086c0-3.576-1.539-4.621-4.617-4.729v-1.65h19.088c7.041,0,13.258,2.916,13.258,10.122
		C191.252-115.259,183.606-112.783,176.125-112.783z M175.465-131.76c-2.312,0-2.916,0.935-2.916,2.97v13.698
		c6.16,0,9.242,0,9.242-8.527C181.792-128.736,180.032-131.76,175.465-131.76z"/>
	<path fill="#F0534F" d="M217.058-95.125c-2.858,0-4.729-0.44-7.919-1.485c-0.661-0.163-1.155-0.329-1.652-0.329
		c-0.986,0-1.316,0.659-1.537,1.814h-1.65v-13.918h1.65c1.045,7.426,6.156,12.047,11.274,12.047c4.18,0,6.874-2.751,6.874-6.161
		c0-2.859-1.484-4.565-4.842-6.16l-5.828-2.751c-5.612-2.641-8.637-5.996-8.637-11.388c0-7.041,4.783-11.222,11.992-11.222
		c1.76,0,3.405,0.272,4.947,0.771c2.312,0.771,3.575,1.046,4.016,1.046c1.047,0,1.377-0.551,1.813-1.814h1.647v12.321h-1.647
		c-1.597-6.546-5.558-10.342-10.728-10.342c-3.299,0-6.105,1.926-6.105,5.336c0,2.641,1.706,4.62,5.171,6.16l5.282,2.42
		c5.996,2.75,9.734,6.161,9.734,11.992C230.92-99.635,224.814-95.125,217.058-95.125z"/>
	<path fill="#F0534F" d="M276.862-127.361l-8.91,14.907v9.902c0,3.738,1.318,4.895,5.336,4.895v1.651h-19.584v-1.651
		c4.07-0.054,5.279-1.045,5.279-5.17v-7.812l-9.732-18.042c-1.543-2.695-3.246-3.465-4.787-3.465v-1.65h18.646v1.65
		c-1.154,0-4.398-0.274-4.398,1.596c0,0.659,0.328,1.595,1.316,3.521l6.49,12.597l6.77-11.44c1.209-2.036,1.596-3.081,1.596-4.125
		c0-1.54-1.266-2.146-4.678-2.146v-1.65h12.269v1.65C280.215-131.76,279.446-131.541,276.862-127.361z"/>
</g>
<g>
	<path fill="#F0534F" d="M305.831-72.867H-65.502v-81.609h371.333V-72.867z M-61.376-76.994h363.08v-73.355h-363.08V-76.994z"/>
</g>
<path fill="#F9F6F2" d="M60.595,30.722c-2.382-6.899-5.461-8.537-12.308-7.449l5.062,28.881c0.627,3.575,2.1,4.323,6.172,3.664
	l0.285,1.625L40.3,60.865l-0.285-1.627c3.956-0.693,5.094-1.842,4.448-5.525L39.4,24.832c-6.808,1.307-9.146,3.894-9.04,11.191
	l-1.463,0.256l-2.004-11.433l33.16-5.813l2.004,11.432L60.595,30.722L60.595,30.722z"/>
<path fill="#F9F6F2" d="M74.291,57.817l0.241-1.634c3.81,0.562,5.344-0.045,5.857-3.527l3.748-25.416
	c0.514-3.482-0.875-4.632-4.574-5.178l0.241-1.632l19.374,2.855l-0.241,1.633c-3.935-0.47-5.345,0.046-5.875,3.638l-3.749,25.413
	c-0.521,3.537,1.162,4.563,4.591,5.069l-0.24,1.635L74.291,57.817L74.291,57.817z"/>
<path fill="#F9F6F2" d="M127.711,42.479l-3.531,0.562l1.642,10.324c0.476,2.985,1.054,4.176,5.623,3.838l0.26,1.63l-18.361,2.92
	l-0.259-1.63c3.179-0.672,4.37-1.919,3.826-5.342l-3.939-24.774c-0.562-3.531-2.245-4.322-5.303-3.946l-0.259-1.63l18.851-2.998
	c6.954-1.105,13.551,0.798,14.682,7.915C142.261,37.659,135.098,41.304,127.711,42.479z M124.078,23.841
	c-2.284,0.363-2.733,1.382-2.414,3.392l2.15,13.527c6.083-0.967,9.126-1.45,7.788-9.872
	C130.802,25.834,128.588,23.123,124.078,23.841z"/>
<path fill="#F9F6F2" d="M167.19,60.263c-2.854-0.164-4.694-0.713-7.819-1.938c-0.65-0.201-1.136-0.396-1.632-0.424
	c-0.984-0.058-1.353,0.584-1.641,1.725l-1.646-0.095l0.798-13.896l1.646,0.096c0.618,7.474,5.457,12.381,10.566,12.674
	c4.173,0.24,7.021-2.353,7.216-5.757c0.164-2.855-1.22-4.645-4.479-6.43l-5.66-3.079c-5.452-2.958-8.279-6.482-7.971-11.864
	c0.404-7.029,5.418-10.93,12.616-10.516c1.757,0.102,3.385,0.469,4.896,1.054c2.264,0.9,3.51,1.248,3.947,1.272
	c1.046,0.061,1.406-0.47,1.916-1.708l1.646,0.096l-0.707,12.301l-1.646-0.096c-1.219-6.626-4.954-10.643-10.115-10.938
	c-3.294-0.189-6.206,1.571-6.402,4.976c-0.151,2.637,1.438,4.711,4.81,6.448l5.136,2.719c5.828,3.09,9.363,6.709,9.029,12.531
	C181.288,56.555,174.933,60.708,167.19,60.263z"/>
<path fill="#F9F6F2" d="M229.588,29.873l-10.715,13.67l-1.244,9.824c-0.47,3.708,0.692,5.021,4.678,5.525l-0.207,1.639
	l-19.429-2.461l0.207-1.638c4.047,0.458,5.371-0.373,5.89-4.467l0.981-7.75l-7.391-19.123c-1.191-2.867-2.784-3.845-4.313-4.038
	l0.208-1.638l18.5,2.343l-0.207,1.638c-1.147-0.146-4.331-0.825-4.566,1.029c-0.083,0.654,0.125,1.623,0.866,3.658l4.854,13.312
	l8.153-10.499c1.455-1.868,1.972-2.856,2.103-3.893c0.192-1.527-0.986-2.288-4.371-2.716l0.207-1.638l12.171,1.542l-0.208,1.638
	C233.467,25.93,232.676,26.051,229.588,29.873z"/>
<g>
	<path fill="#F9F6F2" d="M56.612,110.596c-1.153-7.207-3.904-9.353-10.837-9.462v29.32c0,3.629,1.32,4.621,5.446,4.674v1.652H31.416
		v-1.652c4.017,0,5.336-0.934,5.336-4.674v-29.32c-6.933,0.109-9.683,2.255-10.836,9.462h-1.485V98.989h33.666v11.607H56.612
		L56.612,110.596z"/>
	<path fill="#F9F6F2" d="M71.47,136.781v-1.652c3.851,0,5.28-0.823,5.28-4.344v-25.69c0-3.521-1.541-4.455-5.28-4.455v-1.65h19.583
		v1.65c-3.961,0.108-5.281,0.825-5.281,4.455v25.688c0,3.576,1.814,4.346,5.281,4.346v1.652H71.47L71.47,136.781z"/>
	<path fill="#F9F6F2" d="M121.919,120.002h-3.576v10.453c0,3.023,0.385,4.291,4.951,4.674v1.652h-18.592v-1.652
		c3.244-0.164,4.616-1.209,4.616-4.674v-25.086c0-3.576-1.537-4.621-4.616-4.729v-1.65h19.088c7.041,0,13.258,2.916,13.258,10.123
		C137.045,117.528,129.399,120.002,121.919,120.002z M121.258,101.026c-2.312,0-2.916,0.934-2.916,2.969v13.699
		c6.16,0,9.242,0,9.242-8.527C127.585,104.049,125.824,101.026,121.258,101.026z"/>
	<path fill="#F9F6F2" d="M162.851,137.66c-2.858,0-4.729-0.441-7.919-1.486c-0.661-0.161-1.155-0.327-1.652-0.327
		c-0.986,0-1.316,0.659-1.538,1.813h-1.649v-13.918h1.649c1.046,7.426,6.157,12.047,11.275,12.047c4.18,0,6.874-2.75,6.874-6.16
		c0-2.86-1.483-4.565-4.842-6.162l-5.828-2.75c-5.612-2.641-8.637-5.995-8.637-11.387c0-7.041,4.782-11.223,11.992-11.223
		c1.76,0,3.405,0.272,4.947,0.771c2.312,0.771,3.575,1.045,4.016,1.045c1.047,0,1.377-0.551,1.813-1.813H175v12.32h-1.647
		c-1.597-6.546-5.558-10.341-10.728-10.341c-3.299,0-6.105,1.925-6.105,5.334c0,2.642,1.706,4.621,5.171,6.162l5.282,2.42
		c5.996,2.75,9.734,6.16,9.734,11.992C176.713,133.151,170.607,137.66,162.851,137.66z"/>
	<path fill="#F9F6F2" d="M222.656,105.424l-8.912,14.908v9.902c0,3.738,1.318,4.895,5.336,4.895v1.652h-19.584v-1.652
		c4.071-0.053,5.28-1.045,5.28-5.17v-7.812l-9.733-18.041c-1.543-2.695-3.246-3.465-4.787-3.465v-1.65h18.647v1.65
		c-1.155,0-4.399-0.275-4.399,1.596c0,0.658,0.328,1.594,1.317,3.52l6.487,12.599l6.771-11.441c1.209-2.035,1.596-3.08,1.596-4.125
		c0-1.539-1.266-2.145-4.678-2.145v-1.65h12.268v1.65C226.008,101.026,225.24,101.244,222.656,105.424z"/>
</g>
<g>
	<g>
		<polygon fill="#F9F4EA" points="499.966,72.359 497.253,70.559 558.906,-21.141 561.616,-19.343 		"/>
		<path fill="#F9F4EA" d="M500.345,74.26l-5.005-3.32l63.188-93.981l5.004,3.318L500.345,74.26z M499.167,70.178l0.421,0.278
			l60.115-89.419l-0.42-0.278L499.167,70.178z"/>
	</g>
</g>
<g>
	<path fill="#F9F4EA" d="M627.39-8.771c-1.153-7.207-3.903-9.353-10.837-9.462v29.32c0,3.629,1.32,4.62,5.446,4.675v1.65h-19.804
		v-1.65c4.016,0,5.336-0.936,5.336-4.675v-29.32c-6.934,0.109-9.684,2.255-10.836,9.462h-1.486v-11.607h33.666v11.606L627.39-8.771
		L627.39-8.771z"/>
	<path fill="#F9F4EA" d="M642.25,17.413v-1.65c3.851,0,5.28-0.824,5.28-4.346v-25.689c0-3.521-1.541-4.455-5.28-4.455v-1.65h19.583
		v1.65c-3.961,0.108-5.281,0.825-5.281,4.455v25.688c0,3.575,1.814,4.345,5.281,4.345v1.652H642.25L642.25,17.413z"/>
	<path fill="#F9F4EA" d="M692.698,0.635h-3.576v10.453c0,3.023,0.385,4.29,4.951,4.675v1.65h-18.592v-1.65
		c3.244-0.164,4.616-1.21,4.616-4.675v-25.086c0-3.576-1.538-4.621-4.616-4.729v-1.65h19.088c7.041,0,13.258,2.916,13.258,10.122
		C707.825-1.841,700.178,0.635,692.698,0.635z M692.038-18.343c-2.312,0-2.916,0.935-2.916,2.97v13.698c6.16,0,9.242,0,9.242-8.527
		C698.365-15.318,696.604-18.343,692.038-18.343z"/>
	<path fill="#F9F4EA" d="M733.63,18.293c-2.86,0-4.729-0.44-7.919-1.485c-0.661-0.163-1.155-0.329-1.652-0.329
		c-0.986,0-1.316,0.66-1.539,1.814h-1.648V4.375h1.648c1.047,7.426,6.158,12.047,11.276,12.047c4.18,0,6.874-2.751,6.874-6.161
		c0-2.859-1.484-4.565-4.842-6.16L730,1.349c-5.612-2.641-8.637-5.996-8.637-11.388c0-7.041,4.783-11.222,11.992-11.222
		c1.76,0,3.405,0.273,4.947,0.771c2.312,0.771,3.575,1.046,4.016,1.046c1.047,0,1.377-0.551,1.813-1.814h1.647v12.321h-1.647
		c-1.597-6.546-5.558-10.341-10.728-10.341c-3.301,0-6.105,1.925-6.105,5.335c0,2.642,1.706,4.62,5.171,6.16l5.282,2.421
		c5.996,2.75,9.734,6.16,9.734,11.991C747.493,13.782,741.386,18.293,733.63,18.293z"/>
	<path fill="#F9F4EA" d="M793.434-13.943l-8.91,14.907v9.902c0,3.738,1.318,4.896,5.336,4.896v1.65h-19.584v-1.65
		c4.07-0.055,5.279-1.046,5.279-5.171V2.781l-9.732-18.043c-1.543-2.695-3.246-3.465-4.787-3.465v-1.65h18.646v1.65
		c-1.154,0-4.398-0.274-4.398,1.596c0,0.659,0.328,1.595,1.316,3.521l6.488,12.597l6.771-11.44c1.209-2.036,1.596-3.081,1.596-4.125
		c0-1.54-1.266-2.146-4.678-2.146v-1.65h12.268v1.65C796.788-18.343,796.018-18.123,793.434-13.943z"/>
</g>
<g>
	<path fill="#F9F4EA" d="M822.405,40.551H451.073v-81.609h371.332V40.551z M455.198,36.424h363.08v-73.355h-363.08V36.424z"/>
</g>
<circle fill="#EAE3DA" cx="-53.584" cy="34.24" r="6.564"/>
<circle fill="#F9F6F2" cx="-43.725" cy="0.455" r="3.353"/>
<circle fill="#F9F6F2" cx="-43.725" cy="68.737" r="3.353"/>
</svg>
