<?xml version="1.0" encoding="utf-8"?>
<!-- Generator: Adobe Illustrator 16.0.0, SVG Export Plug-In . SVG Version: 6.00 Build 0)  -->
<!DOCTYPE svg PUBLIC "-//W3C//DTD SVG 1.1//EN" "http://www.w3.org/Graphics/SVG/1.1/DTD/svg11.dtd">
<svg version="1.1" id="Layer_1" xmlns="http://www.w3.org/2000/svg" xmlns:xlink="http://www.w3.org/1999/xlink" x="0px" y="0px"
	 width="360px" height="360px" viewBox="0 0 360 360" enable-background="new 0 0 360 360" xml:space="preserve">
<g>
	<g>
		<g>
			<path fill="#F0534F" d="M162.181,168.002h-0.06c-3.312,0-5.97,2.688-5.97,6c0,3.312,2.718,6,6.03,6c3.312,0,6-2.688,6-6
				C168.18,170.69,165.492,168.002,162.181,168.002z"/>
			<path fill="#F0534F" d="M150.18,132.003h-0.06c-3.312,0-5.97,2.688-5.97,6s2.718,6,6.03,6c3.318,0,6-2.688,6-6
				S153.499,132.003,150.18,132.003z"/>
			<path fill="#F0534F" d="M198.18,132.003h-0.059c-3.312,0-5.965,2.688-5.965,6s2.713,6,6.024,6s6-2.688,6-6
				S201.492,132.003,198.18,132.003z"/>
			<path fill="#F0534F" d="M120.859,165.092c1.122,1.872,3.108,2.91,5.148,2.91c1.05,0,2.118-0.276,3.084-0.858
				c2.837-1.704,3.761-5.388,2.058-8.232l-23.345-38.91H246c3.318,0,6-2.688,6-6s-2.682-6-6-6H100.597l-5.448-9.09
				c-1.704-2.844-5.388-3.756-8.232-2.052c-2.844,1.704-3.762,5.388-2.058,8.232L120.859,165.092z"/>
			<path fill="#F0534F" d="M281.999,72.003H81.709L47.371,3.321c-1.482-2.963-5.082-4.17-8.052-2.688
				c-2.963,1.489-4.163,5.089-2.682,8.052l31.656,63.317H30.001c-3.312,0-6,2.688-6,6c0,47.195,25.709,77.759,65.538,77.999
				c1.272,1.08,3.517,5.304,5.172,8.436c7.439,14.028,19.68,36.983,55.29,39.33V348h-48c-3.312,0-6,2.688-6,6
				c0,3.311,2.688,5.999,6,5.999H210c3.318,0,6-2.688,6-5.999c0-3.312-2.682-6-6-6h-48V203.768
				c35.609-2.346,47.849-25.301,55.29-39.329c1.663-3.132,3.9-7.356,5.178-8.436C262.295,155.763,288,125.199,288,78.003
				C288,74.691,285.316,72.003,281.999,72.003z M222,144.002c-7.452,0-11.088,6.864-15.312,14.814
				c-7.422,14.004-17.598,33.186-50.688,33.186c-33.089,0-43.259-19.182-50.688-33.186c-4.218-7.95-7.86-14.814-15.312-14.814
				c-21.432,0-35.405-9.9-43.77-24H72c3.312,0,6-2.688,6-6s-2.688-6-6-6H40.747c-2.622-7.596-4.11-15.78-4.572-24h239.656
				C274.127,114.039,259.325,144.002,222,144.002z"/>
			<path fill="#F0534F" d="M320.267,39.945c-0.042-0.036-0.054-0.09-0.09-0.125c-0.036-0.042-0.09-0.054-0.126-0.09
				c-9.773-9.713-23.22-15.726-38.051-15.726c-14.189,0-27.559,5.766-37.488,15.354c-0.228,0.168-0.492,0.258-0.695,0.462
				c-0.18,0.18-0.252,0.414-0.402,0.606c-4.104,4.194-7.639,8.994-10.225,14.436c-1.422,2.994-0.144,6.576,2.85,7.998
				c2.982,1.434,6.582,0.15,7.992-2.85c1.212-2.544,2.742-4.872,4.404-7.086l12.354,12.354c1.17,1.17,2.706,1.758,4.242,1.758
				c1.535,0,3.071-0.588,4.241-1.758c2.347-2.346,2.347-6.144,0-8.484l-12.337-12.33c7.146-5.328,15.877-8.46,25.062-8.46
				c9.42,0,18.09,3.15,25.104,8.406l-12.377,12.384c-2.341,2.34-2.341,6.144,0,8.484c1.175,1.17,2.705,1.758,4.241,1.758
				s3.071-0.588,4.241-1.758l12.378-12.384c5.263,7.014,8.412,15.69,8.412,25.11c0,9.336-3.107,18.047-8.388,25.122l-12.402-12.396
				c-2.34-2.346-6.138-2.346-8.482,0c-2.341,2.346-2.341,6.144,0,8.484l12.354,12.348c-4.32,3.233-9.234,5.766-14.719,7.158
				c-3.209,0.81-5.16,4.074-4.344,7.29c0.69,2.718,3.139,4.523,5.814,4.523c0.492,0,0.984-0.06,1.482-0.186
				c9.654-2.454,18.113-7.446,24.798-14.111c0.023-0.024,0.054-0.03,0.071-0.054c0.024-0.024,0.03-0.054,0.055-0.078
				c9.821-9.864,15.762-23.4,15.762-38.1C335.998,63.166,329.98,49.72,320.267,39.945z"/>
		</g>
	</g>
</g>
</svg>
