<?xml version="1.0" encoding="utf-8"?>
<!-- Generator: Adobe Illustrator 16.0.0, SVG Export Plug-In . SVG Version: 6.00 Build 0)  -->
<!DOCTYPE svg PUBLIC "-//W3C//DTD SVG 1.1//EN" "http://www.w3.org/Graphics/SVG/1.1/DTD/svg11.dtd">
<svg version="1.1" id="Layer_1" xmlns="http://www.w3.org/2000/svg" xmlns:xlink="http://www.w3.org/1999/xlink" x="0px" y="0px"
	 width="360px" height="360px" viewBox="0 0 360 360" enable-background="new 0 0 360 360" xml:space="preserve">
<g>
	<g>
		<g>
			<path fill="#F0534F" d="M102.523,82.707c-2.801-2.801-7.342-2.801-10.143,0s-2.8,7.342,0,10.142l32.316,32.316
				c1.4,1.401,3.236,2.101,5.071,2.101c1.835,0,3.671-0.7,5.072-2.101c2.8-2.801,2.8-7.342,0-10.142L102.523,82.707z"/>
			<path fill="#F0534F" d="M162.328,142.511l-9.658-9.658c-2.801-2.8-7.342-2.801-10.143,0c-2.8,2.801-2.8,7.342,0,10.142
				l9.659,9.659c1.399,1.4,3.235,2.1,5.071,2.1c1.835,0,3.67-0.7,5.071-2.1C165.128,149.853,165.128,145.312,162.328,142.511z"/>
			<path fill="#F0534F" d="M194.402,345.657h-31.461v-7.888c0-3.961-3.21-7.172-7.171-7.172c-3.961,0-7.171,3.211-7.171,7.172v7.888
				h-31.461c-3.96,0-7.171,3.211-7.171,7.171c0,3.961,3.21,7.172,7.171,7.172h77.264c3.961,0,7.171-3.211,7.171-7.172
				C201.573,348.868,198.363,345.657,194.402,345.657z"/>
			<path fill="#F0534F" d="M269.437,0c-32.253,0-58.908,24.406-62.479,55.719H34.845c-2.9,0-5.515,1.748-6.625,4.427
				c-1.11,2.679-0.496,5.764,1.554,7.815l118.824,118.824V312.25c0,3.961,3.211,7.171,7.171,7.171c3.961,0,7.171-3.21,7.171-7.171
				V186.785l71.594-71.594c10.282,6.857,22.445,10.588,34.9,10.588c34.678,0,62.891-28.212,62.891-62.89S304.113,0,269.437,0z
				 M155.771,173.673L52.158,70.062h207.225L155.771,173.673z M269.437,111.438c-8.649,0-17.118-2.322-24.507-6.639l10.211-10.211
				l26.779-26.61c2.061-2.047,2.682-5.135,1.575-7.821c-1.107-2.686-3.726-4.438-6.63-4.438h-0.17h-55.278
				c3.478-23.381,23.687-41.376,48.02-41.376c26.769,0,48.548,21.778,48.548,48.547S296.205,111.438,269.437,111.438z"/>
		</g>
	</g>
</g>
</svg>
