<?xml version="1.0" encoding="utf-8"?>
<!-- Generator: Adobe Illustrator 16.0.0, SVG Export Plug-In . SVG Version: 6.00 Build 0)  -->
<!DOCTYPE svg PUBLIC "-//W3C//DTD SVG 1.1//EN" "http://www.w3.org/Graphics/SVG/1.1/DTD/svg11.dtd">
<svg version="1.1" id="Capa_1" xmlns="http://www.w3.org/2000/svg" xmlns:xlink="http://www.w3.org/1999/xlink" x="0px" y="0px"
	 width="360px" height="360px" viewBox="0 0 360 360" enable-background="new 0 0 360 360" xml:space="preserve">
<path fill="#F0534F" d="M251.949,210.939c-10.444-12.508-19.464-23.311-19.464-36.868c0-37.27-23.078-58.671-46.653-61.719v-10.808
	l16.127-16.127c3.395,0.582,6.828,0.868,10.264,0.868c17.107,0,34.288-7.066,47.062-19.84c16.156-16.156,23.18-39.357,18.33-60.547
	c-0.499-2.182-2.203-3.885-4.384-4.384c-21.192-4.85-44.392,2.175-60.548,18.33c-15.34,15.341-22.438,37.03-18.967,57.322
	l-7.885,7.885V36.925c0-3.222-2.611-5.832-5.832-5.832s-5.832,2.61-5.832,5.832v23.277l-7.462-7.462
	c2.036-13.858-2.914-28.518-13.34-38.944c-11.241-11.24-27.401-16.124-42.174-12.74c-2.181,0.5-3.885,2.202-4.384,4.384
	c-3.381,14.773,1.501,30.933,12.74,42.173c8.884,8.883,20.839,13.794,32.755,13.794c2.047,0,4.091-0.161,6.12-0.456l15.745,15.746
	v35.658c-10.92,1.422-21.472,6.757-29.622,15.147c-7.771,8-17.032,22.572-17.032,46.569c0,13.558-9.02,24.36-19.464,36.868
	c-12.745,15.265-27.19,32.565-27.19,58.809c0,19.744,8.441,42.201,22.581,60.075c15.171,19.177,34.573,30.178,53.231,30.178
	c7.146,0,12.202-2.028,16.265-3.659c2.744-1.1,4.911-1.969,7.062-1.969c2.151,0,4.317,0.869,7.062,1.969
	c4.064,1.631,9.121,3.659,16.266,3.659c18.658,0,38.061-10.999,53.231-30.178c14.14-17.874,22.58-40.331,22.58-60.075
	C279.139,243.505,264.693,226.204,251.949,210.939z M220.931,28.092c12.4-12.4,29.724-18.31,46.009-15.902
	c2.407,16.283-3.502,33.608-15.902,46.008c-10.453,10.454-24.405,16.292-38.285,16.426l27.373-27.373
	c2.277-2.278,2.277-5.97,0-8.247c-2.277-2.277-5.97-2.277-8.247,0l-27.374,27.374C204.637,52.499,210.477,38.546,220.931,28.092z
	 M127.795,39.366c-7.464-7.465-11.208-17.735-10.232-27.555c9.822-0.977,20.09,2.769,27.555,10.232
	c5.309,5.31,8.724,12.041,9.909,19.019l-14.464-14.464c-2.277-2.277-5.97-2.277-8.247,0c-2.278,2.278-2.278,5.97,0,8.248
	l14.421,14.421C139.787,48.069,133.086,44.656,127.795,39.366z M247.411,322.586c-12.945,16.365-29.014,25.75-44.085,25.75
	c-4.893,0-8.308-1.369-11.922-2.819c-3.443-1.38-7.002-2.808-11.404-2.808s-7.961,1.428-11.404,2.808
	c-3.615,1.45-7.03,2.819-11.923,2.819c-15.071,0-31.139-9.385-44.084-25.75c-12.563-15.881-20.064-35.634-20.064-52.838
	c0-22.014,12.445-36.918,24.479-51.334c10.901-13.056,22.174-26.557,22.174-44.343c0-15.898,4.75-29.191,13.735-38.442
	c7.412-7.63,17.284-12.006,27.087-12.006s19.676,4.376,27.087,12.006c8.985,9.25,13.735,22.544,13.735,38.442
	c0,17.786,11.272,31.287,22.174,44.343c12.035,14.414,24.479,29.32,24.479,51.334C267.475,286.952,259.975,306.705,247.411,322.586z
	"/>
</svg>
