<?xml version="1.0" encoding="iso-8859-1"?>
<!-- Generator: Adobe Illustrator 18.0.0, SVG Export Plug-In . SVG Version: 6.00 Build 0)  -->
<!DOCTYPE svg PUBLIC "-//W3C//DTD SVG 1.1//EN" "http://www.w3.org/Graphics/SVG/1.1/DTD/svg11.dtd">
<svg version="1.1" id="Capa_1" xmlns="http://www.w3.org/2000/svg" xmlns:xlink="http://www.w3.org/1999/xlink" x="0px" y="0px"
	 viewBox="0 0 442.795 442.795" style="enable-background:new 0 0 442.795 442.795;" xml:space="preserve">
<g>
	<path d="M225.522,279.312c-2.893-2.965-7.641-3.023-10.606-0.13l-15.388,15.015l-15.014-15.388
		c-2.893-2.965-7.641-3.024-10.606-0.131c-2.964,2.893-3.023,7.641-0.13,10.606l15.015,15.389l-15.389,15.015
		c-2.965,2.893-3.023,7.641-0.13,10.606c1.47,1.506,3.418,2.262,5.369,2.262c1.888,0,3.779-0.709,5.237-2.132l15.388-15.015
		l15.014,15.388c1.47,1.507,3.418,2.262,5.369,2.262c1.888,0,3.779-0.709,5.237-2.132c2.965-2.893,3.023-7.641,0.13-10.606
		l-15.015-15.389l15.389-15.015C228.357,287.025,228.415,282.277,225.522,279.312z"/>
	<path d="M272.478,142.438h-10.804V101.87h17.294c4.142,0,7.5-3.358,7.5-7.5V50.935c0-4.142-3.358-7.5-7.5-7.5h-23.405l4.522-34.973
		c0.277-2.139-0.381-4.293-1.805-5.914C256.857,0.928,254.804,0,252.648,0h-62.5c-2.157,0-4.209,0.928-5.633,2.548
		c-1.424,1.62-2.082,3.774-1.805,5.914l4.522,34.973h-23.404c-4.142,0-7.5,3.358-7.5,7.5V94.37c0,4.142,3.358,7.5,7.5,7.5h17.293
		v40.568h-10.804c-35.804,0-64.933,29.129-64.933,64.933v212.425c0,12.682,10.317,22.999,22.999,22.999h186.029
		c12.682,0,22.999-10.317,22.999-22.999V207.371C337.411,171.567,308.282,142.438,272.478,142.438z M198.679,15h45.436
		l-3.677,28.435h-38.082L198.679,15z M171.327,58.435h100.141V86.87H171.327V58.435z M196.121,101.87h50.553v40.568h-50.553V101.87z
		 M120.384,314.563l15.839,16.23c1.47,1.506,3.418,2.262,5.368,2.262c1.889,0,3.779-0.709,5.238-2.132
		c2.964-2.893,3.022-7.642,0.129-10.606l-15.012-15.382l15.382-15.012c2.964-2.893,3.022-7.642,0.129-10.606
		c-2.894-2.964-7.642-3.023-10.606-0.129l-16.468,16.071v-40.956h120.514v101H120.384V314.563z M322.411,419.796
		c0,4.411-3.588,7.999-7.999,7.999H128.383c-4.411,0-7.999-3.588-7.999-7.999v-49.493h128.014c4.142,0,7.5-3.358,7.5-7.5v-116
		c0-4.142-3.358-7.5-7.5-7.5H120.384v-31.931c0-27.533,22.4-49.933,49.933-49.933h18.304h65.553h18.304
		c27.533,0,49.933,22.4,49.933,49.933V419.796z"/>
	<path d="M302.911,259.702c-4.142,0-7.5,3.358-7.5,7.5v13.6c0,4.142,3.358,7.5,7.5,7.5s7.5-3.358,7.5-7.5v-13.6
		C310.411,263.06,307.053,259.702,302.911,259.702z"/>
	<path d="M272.479,169.439c-4.142,0-7.5,3.358-7.5,7.5s3.358,7.5,7.5,7.5c12.645,0,22.933,10.287,22.933,22.932v37.431
		c0,4.142,3.358,7.5,7.5,7.5s7.5-3.358,7.5-7.5v-37.431C310.411,186.455,293.395,169.439,272.479,169.439z"/>
</g>
<g>
</g>
<g>
</g>
<g>
</g>
<g>
</g>
<g>
</g>
<g>
</g>
<g>
</g>
<g>
</g>
<g>
</g>
<g>
</g>
<g>
</g>
<g>
</g>
<g>
</g>
<g>
</g>
<g>
</g>
</svg>
