<?xml version="1.0" encoding="utf-8"?>
<!-- Generator: Adobe Illustrator 16.0.0, SVG Export Plug-In . SVG Version: 6.00 Build 0)  -->
<!DOCTYPE svg PUBLIC "-//W3C//DTD SVG 1.1//EN" "http://www.w3.org/Graphics/SVG/1.1/DTD/svg11.dtd">
<svg version="1.1" id="Layer_1" xmlns="http://www.w3.org/2000/svg" xmlns:xlink="http://www.w3.org/1999/xlink" x="0px" y="0px"
	 width="360px" height="360px" viewBox="0 0 360 360" enable-background="new 0 0 360 360" xml:space="preserve">
<g>
	<rect x="157.483" y="292.725" fill="#F0534F" width="50.666" height="10.986"/>
	<rect x="157.483" y="275.836" fill="#F0534F" width="50.666" height="10.986"/>
	<rect x="157.483" y="258.947" fill="#F0534F" width="22.517" height="10.986"/>
	<rect x="157.483" y="185.768" fill="#F0534F" width="11.259" height="10.986"/>
	<rect x="174.372" y="185.768" fill="#F0534F" width="11.259" height="10.986"/>
	<rect x="191.26" y="185.768" fill="#F0534F" width="11.26" height="10.986"/>
	<rect x="208.149" y="185.768" fill="#F0534F" width="11.259" height="10.986"/>
	<path fill="#F0534F" d="M202.518,61.922c-37.173,0-67.416,30.242-67.416,67.415v152.125h-11.531v-11.395
		c0-10.445-7.195-19.24-16.888-21.697V50.527c0-12.492,10.163-22.654,22.654-22.654h45.034V16.887h-45.034
		c-18.549,0-33.64,15.091-33.64,33.64v197.846c-9.693,2.455-16.888,11.25-16.888,21.696v56.155h44.762v-33.775h11.531V360h134.829
		V129.336C269.931,92.165,239.689,61.922,202.518,61.922z M112.585,315.238H89.795v-45.17c0-6.283,5.111-11.395,11.395-11.395
		c6.284,0,11.395,5.111,11.395,11.395L112.585,315.238L112.585,315.238z M258.945,349.016H146.088v-22.791h112.857V349.016
		L258.945,349.016z M258.945,315.238H146.088V174.235h112.857V315.238L258.945,315.238z M258.945,163.249H146.088v-22.791h112.857
		V163.249L258.945,163.249z M258.945,129.473H146.088v-0.137c0-31.115,25.314-56.429,56.43-56.429
		c31.115,0,56.43,25.314,56.43,56.429v0.137H258.945z"/>
	<polygon fill="#F0534F" points="197.024,56.156 208.01,56.156 208.01,44.762 225.034,44.762 225.034,33.776 191.121,33.776 
		191.121,10.986 225.034,10.986 225.034,0 180.136,0 180.136,44.762 197.024,44.762 	"/>
	<path fill="#F0534F" d="M258.809,0c-10.445,0-19.24,7.194-21.697,16.888h-34.595v10.986h34.595
		c2.455,9.693,11.251,16.888,21.697,16.888c12.342,0,22.381-10.04,22.381-22.381C281.189,10.04,271.15,0,258.809,0z M258.809,33.776
		c-6.283,0-11.395-5.111-11.395-11.395s5.111-11.395,11.395-11.395s11.396,5.111,11.396,11.395
		C270.205,28.665,265.092,33.776,258.809,33.776z"/>
</g>
</svg>
