<?xml version="1.0" encoding="utf-8"?>
<!-- Generator: Adobe Illustrator 16.0.0, SVG Export Plug-In . SVG Version: 6.00 Build 0)  -->
<!DOCTYPE svg PUBLIC "-//W3C//DTD SVG 1.1//EN" "http://www.w3.org/Graphics/SVG/1.1/DTD/svg11.dtd">
<svg version="1.1" id="Layer_1" xmlns="http://www.w3.org/2000/svg" xmlns:xlink="http://www.w3.org/1999/xlink" x="0px" y="0px"
	 width="360px" height="360px" viewBox="0 0 360 360" enable-background="new 0 0 360 360" xml:space="preserve">
<g>
	<g>
		<g>
			<path fill="#F9F6F2" d="M267.084,99.525h-6.221c-5.066,0-9.857-9.235-14.49-18.167c-7.301-14.077-16.389-31.596-35.271-31.596
				h-0.389V24.492C210.713,10.987,199.726,0,186.221,0H173.78c-13.505,0-24.493,10.987-24.493,24.492v25.271h-0.389
				c-18.882,0-27.97,17.519-35.272,31.596c-4.633,8.932-9.423,18.167-14.49,18.167h-6.22c-3.221,0-5.832,2.611-5.832,5.832
				s2.611,5.832,5.832,5.832h0.889c2.407,26.411,13.675,145.462,28.854,233.724c1.504,8.742,9.072,15.088,17.998,15.088h78.688
				c8.926,0,16.494-6.346,17.998-15.088c15.178-88.262,26.445-207.313,28.854-233.724h0.889c3.221,0,5.832-2.611,5.832-5.832
				S270.305,99.525,267.084,99.525z M160.95,24.492c0-7.074,5.755-12.829,12.83-12.829h12.441c7.074,0,12.829,5.755,12.829,12.829
				v0.389h-38.1V24.492z M160.95,36.544h38.1v13.218h-38.1V36.544z M123.979,86.729c7.686-14.816,13.972-25.304,24.919-25.304
				h62.203c10.947,0,17.234,10.488,24.92,25.304c2.294,4.423,4.619,8.9,7.244,12.796H116.734
				C119.36,95.63,121.685,91.153,123.979,86.729z M225.847,342.936c-0.538,3.129-3.272,5.401-6.503,5.401h-78.688
				c-3.23,0-5.964-2.272-6.502-5.401c-12.082-70.254-21.683-160.205-26.269-206.866h144.231
				C247.529,182.729,237.93,272.675,225.847,342.936z M253.246,124.406H106.753c-0.521-5.468-0.938-9.944-1.237-13.218h148.968
				C254.186,114.462,253.768,118.938,253.246,124.406z"/>
			<path fill="#F9F6F2" d="M229.143,173.36c0.207,0.022,0.414,0.033,0.619,0.033c2.945,0,5.477-2.225,5.793-5.219
				c0.455-4.307,0.889-8.465,1.299-12.453c0.33-3.204-2-6.068-5.203-6.397c-3.207-0.331-6.068,2-6.398,5.203
				c-0.41,3.978-0.842,8.125-1.297,12.421C223.617,170.15,225.939,173.021,229.143,173.36z"/>
			<path fill="#F9F6F2" d="M217.203,272.866c0.262,0.034,0.521,0.052,0.777,0.052c2.879,0,5.384-2.131,5.773-5.062
				c3.072-23.05,6.133-48.206,9.095-74.771c0.356-3.202-1.948-6.085-5.149-6.442c-3.2-0.357-6.086,1.947-6.441,5.148
				c-2.954,26.483-6.004,51.557-9.064,74.524C211.769,269.508,214.012,272.441,217.203,272.866z"/>
		</g>
	</g>
</g>
</svg>
