<?xml version="1.0" encoding="utf-8"?>
<!-- Generator: Adobe Illustrator 16.0.0, SVG Export Plug-In . SVG Version: 6.00 Build 0)  -->
<!DOCTYPE svg PUBLIC "-//W3C//DTD SVG 1.1//EN" "http://www.w3.org/Graphics/SVG/1.1/DTD/svg11.dtd">
<svg version="1.1" id="Layer_1" xmlns="http://www.w3.org/2000/svg" xmlns:xlink="http://www.w3.org/1999/xlink" x="0px" y="0px"
	 width="360px" height="360px" viewBox="0 0 360 360" enable-background="new 0 0 360 360" xml:space="preserve">
<g transform="translate(1 1)">
	<g>
		<path fill="#F0534F" d="M332.6,260.6l-13.444-7.768L329.6,249.8c3-0.6,4.8-4.2,4.199-7.2c-0.6-3-4.199-4.8-7.199-4.199
			l-21.969,6.041l-7.924-4.579l2.893-5.062c1.199-3,0.6-6.6-2.4-8.4c-3-1.2-6.6-0.6-8.4,2.4l-2.789,4.881l-18.167-10.496
			L293.6,216.2c3-0.6,4.801-4.2,4.199-7.2c-0.6-3-4.199-4.8-7.199-4.199l-37.43,9.907l-23.618-13.646l35.848-16.662
			c2.399-1.199,3.601-3,3.601-5.399c0-2.4-1.201-4.2-3.601-5.4l-37.104-17.245l23.432-14.08L291.199,152c0,0,0.6,0,1.2,0
			c2.399,0,4.8-1.8,5.399-4.2c1.201-3-1.199-6.6-4.199-7.2l-27.465-6.982l18.561-11.154l2.904,4.936c1.199,1.8,3.6,3,5.399,3
			c1.2,0,2.399,0,3.601-1.2c2.399-1.8,3.6-5.4,1.799-8.4l-2.959-4.792l7.412-4.454L326,117.2c0,0,0.6,0,1.2,0
			c2.399,0,5.399-1.8,5.399-4.8c1.2-3-1.2-6.6-4.199-7.2l-10.475-2.703L331.4,94.4c2.399-1.8,3.6-6,1.8-8.4
			c-1.8-2.4-5.4-3.6-8.4-1.8l-12.805,7.694l2.605-10.095c1.2-3-1.2-6.6-4.2-7.2c-3-1.201-6.6,1.2-7.199,4.2l-5.107,21.448
			l-9.034,5.429l-3.259-5.277c-1.801-2.399-5.4-3.6-8.4-1.8c-2.4,1.8-3.6,5.4-1.801,8.4l2.94,4.998l-18.125,10.892l6.785-26.689
			c1.2-3-1.2-6.6-4.2-7.2c-3-1.2-6.6,1.2-7.199,4.2l-9.389,38.103L223.6,145.01l3.4-37.411c0-2.4-1.2-4.8-3-6
			c-2.4-0.6-4.801-0.6-6.6,0.6L185,125.487V97.399L213.2,69.2c2.399-2.4,2.399-6,0-8.4s-6-2.4-8.4,0L185,80.6V59h6c3.6,0,6-2.4,6-6
			s-2.4-6-6-6h-6v-9.6l16.199-16.2c2.4-2.4,2.4-6,0-8.4c-2.399-2.401-5.999-2.4-8.399,0l-7.8,7.8V5c0-3.6-2.4-6-6-6
			c-3.6,0-6,2.4-6,6v15.6l-7.799-7.8c-2.4-2.4-6-2.4-8.4,0s-2.4,6,0,8.4L173,37.4V47h-6c-3.6,0-6,2.4-6,6s2.4,6,6,6h6v21.6
			l-19.8-19.8c-2.4-2.4-6-2.4-8.4,0c-2.4,2.4-2.399,6,0,8.4L173,97.4v28.087l-32.4-23.287c-1.8-1.8-4.8-1.8-6.6-0.6s-3,3.6-3,6
			l3.507,38.573l-23.377-13.507L101,94.401c-0.6-3-4.2-4.8-7.2-4.2c-3,0.6-4.8,4.2-4.2,7.2l7.341,27.067l-18.822-10.875L81.2,108.2
			c1.2-3,0.6-6.6-2.4-8.4c-3-1.2-6.6-0.6-8.4,2.4l-2.979,5.212l-7.844-4.532L53.6,80.6c-0.6-3-4.2-4.8-7.2-4.2
			c-3,0.601-5.4,4.2-4.2,7.8l2.62,10.154L31.4,86.6c-3-1.2-6.6-0.6-8.4,2.4c-1.201,2.4-0.6,6.6,2.399,8.4l13.358,7.718L27.799,108.2
			c-3,0.6-4.8,4.2-4.2,7.2c1.2,2.399,3.6,4.2,6,4.2c0.6,0,1.2,0,1.8-0.6l22.068-5.382l7.824,4.521l-2.893,5.062
			c-1.2,3-0.6,6.6,2.399,8.4c1.201,0.6,1.8,0.6,3,0.6c2.4,0,4.2-1.2,5.4-3l2.79-4.882l18.683,10.794L63.8,142.4
			c-3,0.6-4.8,4.2-4.2,7.2c1.2,2.4,3.6,4.2,6,4.2c0,0,0.6,0,1.2,0l38.553-10.205l23.095,13.344L92.6,173.6c-2.4,1.2-3.6,3-3.6,5.4
			c0,2.4,1.2,4.199,3.6,5.4l36.847,17.398l-23.534,14.143L68,206.6c-3-1.2-6.6,1.2-7.2,4.199C59.6,213.8,62,217.4,65,218
			l26.342,6.697l-18.491,11.11L69.2,230c-1.8-2.4-5.4-3.6-8.4-1.801c-2.4,1.801-3.6,5.4-1.8,8.4l3.392,5.493l-8.318,4.999L33.2,242
			c-3-1.2-6.601,1.2-7.2,4.199c-1.2,3.001,1.2,6.601,4.2,7.201l9.356,2.414L26.6,263.6c-3,1.201-3.6,5.4-2.399,7.801
			c1.2,1.799,3.6,3,5.4,3c1.2,0,2.4,0,3-0.6l14.396-8.613L44,276.8c-1.2,3,1.2,6.601,4.2,7.2c0,0,0.6,0,1.2,0
			c2.4,0,4.8-1.801,6.6-3.6l5.883-24.117l6.772-4.053l2.945,4.77c1.2,1.8,3.6,3,5.4,3c1.2,0,2.4,0,3.6-0.6
			c2.399-1.801,3.6-5.4,1.8-8.4l-3.193-5.08l19.322-11.56L91.4,262.4c-1.2,3,1.2,6.6,4.2,7.199c0,0,0.6,0,1.2,0
			c2.4,0,4.8-1.8,6.6-4.199l9.812-39.823l21.772-13.024L131,250.4c0,2.399,1.2,4.801,3,6c1.2,0.6,1.8,0.6,3,0.6
			c1.201,0,2.4-0.6,3.6-1.201l32.4-23.287V260.6l-28.2,28.2c-2.399,2.399-2.399,6,0,8.4c2.4,2.4,6,2.399,8.4,0l19.8-19.8V299h-6
			c-3.6,0-6,2.4-6,6s2.4,6,6,6h6v9.6l-16.2,16.199c-2.4,2.4-2.4,6,0,8.4s6,2.4,8.4,0L173,337.4V353c0,3.6,2.4,6,6,6c3.6,0,6-2.4,6-6
			v-15.6l7.799,7.799C194,346.4,195.199,347,197,347c1.799,0,3-0.6,4.199-1.801c2.399-2.399,2.399-5.999,0-8.4l-16.2-16.199V311h6
			c3.6,0,5.999-2.4,5.999-6s-2.399-6-5.999-6h-6v-21.6l19.8,19.8c1.201,1.2,2.4,1.8,4.2,1.8s3-0.6,4.2-1.8
			c2.398-2.399,2.398-5.999,0-8.4l-28.201-28.2v-28.088l32.4,23.287c1.8,1.801,4.801,1.801,6.6,0.601c1.801-1.2,3.001-3.601,3.001-6
			l-3.507-38.573l22.482,12.99l10.425,39.383c1.2,2.4,3.6,4.2,5.999,4.2c0.601,0,1.201-0.6,1.201,0c3-0.6,4.8-4.2,4.199-7.2
			l-7.645-28.189l19.726,11.396l-3.081,5.394c-1.201,3-0.6,6.601,2.399,8.4c1.2,0.6,1.8,0.6,3,0.6c1.8,0,3.601-1.2,5.399-3.001
			l2.979-5.211l7.845,4.531l5.978,22.28c1.2,2.399,3.601,4.2,6,4.2c0,0,0.6,0,1.2-0.6c3-0.6,4.801-4.2,4.2-7.201l-2.621-10.153
			l13.421,7.755c1.2,0.6,1.8,0.6,3,0.6c1.8,0,4.2-0.6,5.4-3C336.2,266,335.6,262.4,332.6,260.6z M248.6,178.4l-32.269,15.021
			l-14.163-8.182c0.54-1.992,0.833-4.083,0.833-6.24c0-2.375-0.354-4.67-1.005-6.84l14.492-8.708L248.6,178.4z M179,191
			c-3.997,0-7.545-1.987-9.729-5.017c-0.126-0.333-0.278-0.661-0.471-0.983c-0.145-0.192-0.305-0.375-0.471-0.551
			C167.486,182.811,167,180.961,167,179c0-1.913,0.464-3.719,1.27-5.328c0.194-0.213,0.374-0.437,0.53-0.672
			c0.085-0.212,0.158-0.428,0.225-0.646c2.158-3.222,5.828-5.355,9.975-5.355c3.997,0,7.545,1.988,9.729,5.017
			c0.127,0.333,0.278,0.662,0.472,0.983c0.157,0.236,0.336,0.459,0.53,0.672c0.805,1.609,1.27,3.415,1.27,5.328
			c0,1.848-0.436,3.593-1.189,5.16c-0.219,0.257-0.426,0.532-0.61,0.84c-0.085,0.212-0.158,0.428-0.226,0.645
			C186.817,188.867,183.146,191,179,191z M213.8,119l-3.278,33.869l-14.845,8.92c-2.941-2.852-6.601-4.966-10.677-6.025v-16.272
			L213.8,119z M144.2,119l28.8,20.493v16.272c-4.211,1.094-7.983,3.312-10.972,6.309l-14.524-8.392L144.2,119z M108.8,179
			l32.271-14.768l14.762,8.529c-0.54,1.992-0.833,4.083-0.833,6.239c0,2.375,0.354,4.67,1.005,6.841l-14.47,8.694L108.8,179z
			 M144.2,238.4l3.277-33.321l14.837-8.876c2.942,2.855,6.606,4.973,10.685,6.032v15.673L144.2,238.4z M213.8,238.4L185,217.907
			v-15.673c4.211-1.094,7.982-3.312,10.973-6.309l14.584,8.427L213.8,238.4z"/>
	</g>
</g>
</svg>
