<?xml version="1.0" encoding="utf-8"?>
<!-- Generator: Adobe Illustrator 16.0.0, SVG Export Plug-In . SVG Version: 6.00 Build 0)  -->
<!DOCTYPE svg PUBLIC "-//W3C//DTD SVG 1.1//EN" "http://www.w3.org/Graphics/SVG/1.1/DTD/svg11.dtd">
<svg version="1.1" id="Layer_1" xmlns="http://www.w3.org/2000/svg" xmlns:xlink="http://www.w3.org/1999/xlink" x="0px" y="0px"
	 width="360px" height="360px" viewBox="0 0 360 360" enable-background="new 0 0 360 360" xml:space="preserve">
<g>
	<g>
		<path fill="#F0534F" d="M142.657,304.92H42.593c-7.786,0-14.277-6.086-14.778-13.854L12.482,55.081h51.676
			c3.335,0,6.038-2.704,6.038-6.039c0-3.334-2.703-6.038-6.038-6.038H6.039c-1.67,0-3.265,0.69-4.406,1.91
			c-1.142,1.218-1.728,2.854-1.62,4.521l15.749,242.413c0.911,14.104,12.696,25.149,26.831,25.149h100.064
			c3.335,0,6.039-2.704,6.039-6.038C148.695,307.623,145.992,304.92,142.657,304.92z"/>
	</g>
</g>
<g>
	<g>
		<path fill="#F0534F" d="M226.742,44.913c-1.142-1.219-2.736-1.91-4.406-1.91H84.689c-3.335,0-6.039,2.704-6.039,6.039
			s2.704,6.039,6.039,6.039h131.203l-6.365,97.957c-0.217,3.328,2.307,6.202,5.634,6.418c0.134,0.009,0.266,0.013,0.397,0.013
			c3.156,0,5.813-2.453,6.021-5.648l6.784-104.387C228.47,47.768,227.883,46.131,226.742,44.913z"/>
	</g>
</g>
<g>
	<g>
		<path fill="#F0534F" d="M196.799,72.972c-1.143-1.218-2.736-1.909-4.406-1.909H35.975c-1.67,0-3.265,0.691-4.406,1.909
			c-1.142,1.219-1.728,2.855-1.62,4.521L40.81,244.496c1.609,24.92,22.435,44.44,47.41,44.44h14.583
			c3.335,0,6.039-2.704,6.039-6.038c0-3.336-2.704-6.039-6.039-6.039H88.221c-18.627,0-34.159-14.559-35.359-33.146l-7.928-121.902
			h138.503l-1.725,26.551c-0.216,3.328,2.307,6.2,5.635,6.417c3.329,0.217,6.202-2.307,6.418-5.635l4.653-71.651
			C198.527,75.826,197.94,74.189,196.799,72.972z M184.223,109.734H44.148L42.419,83.14h143.529L184.223,109.734z"/>
	</g>
</g>
<g>
	<g>
		<path fill="#F0534F" d="M353.962,164.798H73.721c-3.335,0-6.039,2.704-6.039,6.039c0,23.366,5.351,45.694,15.905,66.367
			c10.063,19.711,24.758,37.181,42.494,50.521c0.065,0.049,0.13,0.096,0.197,0.143c22.912,17.174,50.117,27.153,78.69,28.861
			c2.969,0.178,5.953,0.268,8.872,0.268C294.434,316.997,360,251.43,360,170.837C360.001,167.502,357.297,164.798,353.962,164.798z
			 M322.118,176.877c-1.398,25.361-11.552,48.425-27.481,66.219l-66.219-66.219H322.118z M219.88,185.418l66.217,66.217
			c-17.794,15.93-40.856,26.082-66.217,27.482V185.418L219.88,185.418z M199.266,176.876l-66.22,66.219
			c-15.929-17.793-26.083-40.856-27.481-66.219H199.266z M207.803,185.418v93.699c-25.362-1.4-48.425-11.553-66.218-27.482
			L207.803,185.418z M213.842,304.92c-2.68,0-5.421-0.084-8.15-0.248c-26.278-1.572-51.293-10.77-72.343-26.601
			c-0.062-0.046-0.124-0.093-0.188-0.137c-16.197-12.224-29.617-28.204-38.815-46.223c-8.765-17.167-13.617-35.588-14.454-54.836
			h13.578c3.156,63.665,55.94,114.488,120.374,114.488s117.218-50.824,120.374-114.488h13.574
			C344.624,248.021,285.753,304.92,213.842,304.92z"/>
	</g>
</g>
</svg>
