<?xml version="1.0" encoding="utf-8"?>
<!-- Generator: Adobe Illustrator 16.0.0, SVG Export Plug-In . SVG Version: 6.00 Build 0)  -->
<!DOCTYPE svg PUBLIC "-//W3C//DTD SVG 1.1//EN" "http://www.w3.org/Graphics/SVG/1.1/DTD/svg11.dtd">
<svg version="1.1" id="Layer_1" xmlns="http://www.w3.org/2000/svg" xmlns:xlink="http://www.w3.org/1999/xlink" x="0px" y="0px"
	 width="360px" height="360px" viewBox="0 0 360 360" enable-background="new 0 0 360 360" xml:space="preserve">
<g>
	<g>
		<path fill="#F0534F" d="M358.189,6.679c-1.361-1.53-3.312-2.406-5.36-2.406H7.171c-2.048,0-4,0.876-5.36,2.406
			C0.45,8.21-0.191,10.25,0.049,12.284l39.809,337.113c0.427,3.61,3.487,6.331,7.122,6.331h266.04c3.635,0,6.695-2.721,7.122-6.331
			l39.81-337.113C360.19,10.25,359.55,8.21,358.189,6.679z M306.646,341.385H53.354l-18.027-152.66h289.346L306.646,341.385z
			 M326.367,174.381H33.633L15.24,18.614h329.521L326.367,174.381z"/>
	</g>
</g>
<g>
	<g>
		<path fill="#F0534F" d="M177.842,268.41l-49.982-49.982c-1.344-1.344-3.169-2.1-5.071-2.1s-3.726,0.756-5.071,2.1L67.737,268.41
			c-1.344,1.344-2.1,3.168-2.1,5.07s0.756,3.725,2.1,5.07l49.982,49.981c1.4,1.399,3.236,2.101,5.071,2.101s3.671-0.701,5.071-2.101
			l49.982-49.981c1.344-1.344,2.1-3.168,2.1-5.07S179.187,269.756,177.842,268.41z M122.79,313.32l-39.84-39.84l39.84-39.84
			l39.84,39.84L122.79,313.32z"/>
	</g>
</g>
<g>
	<g>
		<path fill="#F0534F" d="M301.584,250.543l-49.981-49.98c-2.8-2.799-7.34-2.801-10.143,0l-49.981,49.98
			c-1.344,1.346-2.1,3.169-2.1,5.071c0,1.901,0.756,3.726,2.1,5.071l49.982,49.982c1.346,1.344,3.169,2.1,5.07,2.1
			c1.902,0,3.726-0.756,5.071-2.1l49.981-49.982C304.385,257.885,304.385,253.344,301.584,250.543z M246.533,295.455l-39.842-39.84
			l39.842-39.841l39.839,39.841L246.533,295.455z"/>
	</g>
</g>
<g>
	<g>
		<path fill="#F0534F" d="M144.27,29.905H37.077c-3.961,0-7.171,3.211-7.171,7.171s3.21,7.172,7.171,7.172H144.27
			c3.96,0,7.171-3.211,7.171-7.171C151.44,33.116,148.23,29.905,144.27,29.905z"/>
	</g>
</g>
<g>
	<g>
		<path fill="#F0534F" d="M175.34,29.905h-3.884c-3.961,0-7.171,3.211-7.171,7.171s3.21,7.171,7.171,7.171h3.884
			c3.961,0,7.171-3.211,7.171-7.171S179.301,29.905,175.34,29.905z"/>
	</g>
</g>
</svg>
